# xmcd
#
# Track frame offsets: 
#        150
#        15382
#        34574
#        51272
#        67534
#        85368
#        104342
#        119749
#        130470
#        148128
#        165240
#        179920
#        201107
#        216621
#        231549
#
# Disc length: 3291 seconds
#
# Revision: 0
# Processed by: cddbd v1.5.2PL0 Copyright (c) Steve Scherf et al.
# Submitted via: ExactAudioCopyFreeDBPlugin 1.0
#
DISCID=e10cd90f
DTITLE=Big Daddy Wilson - Time
DYEAR=2015
DGENRE=Blues
TTITLE0=Time to Move
TTITLE1=Bullfrog
TTITLE2=She Loves Me
TTITLE3=Mississippi John
TTITLE4=Some Say
TTITLE5=Time
TTITLE6=Dead End Road
TTITLE7=Would Ya Look at That Car
TTITLE8=Like a Sunny Day
TTITLE9=New Zealand - Aotearoa
TTITLE10=Miss Dorothy Lee
TTITLE11=Mama's Words
TTITLE12=We're Ready
TTITLE13=Daisy
TTITLE14=Nickel And a Nail (Bonus Track)
EXTD=
EXTT0=
EXTT1=
EXTT2=
EXTT3=
EXTT4=
EXTT5=
EXTT6=
EXTT7=
EXTT8=
EXTT9=
EXTT10=
EXTT11=
EXTT12=
EXTT13=
EXTT14=
PLAYORDER=
